<svg id="LOGOS_THEOMA" data-name="LOGOS THEOMA" xmlns="http://www.w3.org/2000/svg" viewBox="0 0 443.52 129.66"><defs><style>.cls-1{fill:#ffe799;}.cls-2{fill:#1d1d1b;}.cls-3{fill:#fff;}</style></defs><g id="THEOMA_LOGO_avec_contours_vectorise"><rect id="Rectangle_Jaune" data-name="Rectangle Jaune" class="cls-1" x="39.9" y="51.56" width="396.63" height="71.09"/><g id="THEOMA"><path class="cls-2" d="M31.08,86.3V21.63H7.48V8H71.2V21.63H47.49V86.3Z"/><path class="cls-2" d="M112.55,86.3v-36q0-6.62-2.31-9t-7.61-2.42a10.92,10.92,0,0,0-8.85,4.19,13.49,13.49,0,0,0-2.3,4.48A19,19,0,0,0,90.72,53V86.3H75.38V7H90.72V35.79a11.78,11.78,0,0,1,2.53-3.6,16.28,16.28,0,0,1,4-2.89,23.78,23.78,0,0,1,5-1.89,22.47,22.47,0,0,1,5.67-.7q9,0,14.57,4.89T128,45.23V86.3Z"/><path class="cls-2" d="M148,61.28q.36,6.61,3.84,10.5a11.67,11.67,0,0,0,9.14,3.9A12.86,12.86,0,0,0,167.68,74a7.75,7.75,0,0,0,3.72-4.78h15.81A25.4,25.4,0,0,1,177.77,83a26.71,26.71,0,0,1-16.05,4.84q-29,0-29-31.62a36.82,36.82,0,0,1,1.88-12.16,26.36,26.36,0,0,1,5.49-9.32,23.73,23.73,0,0,1,8.79-6,32.23,32.23,0,0,1,11.92-2.06q13.46,0,20.35,8.61t6.91,26Zm24.19-9.68A15.88,15.88,0,0,0,171.1,46a11.74,11.74,0,0,0-2.65-4,10.53,10.53,0,0,0-3.78-2.36,12.76,12.76,0,0,0-4.36-.77,10.9,10.9,0,0,0-8,3.36Q149,45.6,148.51,51.6Z"/><path class="cls-2" d="M221.5,87.83a33.58,33.58,0,0,1-12.63-2.24,25.92,25.92,0,0,1-15.22-15.93,36.84,36.84,0,0,1-2-12.39,36.24,36.24,0,0,1,2.07-12.51,26.9,26.9,0,0,1,6-9.68,26.62,26.62,0,0,1,9.38-6.19,33.54,33.54,0,0,1,12.45-2.18,32.76,32.76,0,0,1,12.27,2.18,26,26,0,0,1,15.16,15.75A36.61,36.61,0,0,1,251,57.27a36.1,36.1,0,0,1-2.07,12.57,27.45,27.45,0,0,1-5.9,9.61,26,26,0,0,1-9.32,6.2A32.89,32.89,0,0,1,221.5,87.83Zm0-12.86q14,0,14-17.7t-14-17.58q-14.06,0-14.05,17.58T221.5,75Z"/><path class="cls-2" d="M324.11,86.3V51.13a14,14,0,0,0-2.47-8.61A7.88,7.88,0,0,0,315,39.21a8.55,8.55,0,0,0-7,3.54,13.91,13.91,0,0,0-2.78,8.85V86.3H289.89V51.37a28.52,28.52,0,0,0-.47-5.78,7.75,7.75,0,0,0-1.59-3.54,6,6,0,0,0-2.89-1.83,14.72,14.72,0,0,0-4.25-.53q-9.33,0-9.32,11.32V86.3H256V28.24h14.39v8.5q3-5.79,7.08-7.91a21.43,21.43,0,0,1,9.92-2.12,26,26,0,0,1,5.25.47,12.6,12.6,0,0,1,4.13,1.59,17.06,17.06,0,0,1,3.48,2.89,33.45,33.45,0,0,1,3.3,4.25,15.53,15.53,0,0,1,6.26-7,19,19,0,0,1,9.44-2.18,21.31,21.31,0,0,1,8,1.47,18.14,18.14,0,0,1,6.25,4.13,19.63,19.63,0,0,1,5.55,13.75V86.3Z"/><path class="cls-2" d="M381.18,86.3a23.35,23.35,0,0,1-.94-5.2A19,19,0,0,1,373,86a27.34,27.34,0,0,1-10.39,1.83q-10,0-14.69-4.42A15.15,15.15,0,0,1,343.3,71.9q0-6.25,2-10a14.91,14.91,0,0,1,5.54-5.84A26.71,26.71,0,0,1,359.29,53c3.26-.67,6.83-1.28,10.68-1.83s6.45-1.27,7.79-2.18a5,5,0,0,0,2-4.43,4.92,4.92,0,0,0-2.65-4.42A13.84,13.84,0,0,0,370,38.51c-3.54,0-6.08.78-7.61,2.36a11,11,0,0,0-2.89,6.25H345.19a26.52,26.52,0,0,1,1.47-8.26A15.93,15.93,0,0,1,351,32.37a20.51,20.51,0,0,1,7.85-4.19,41,41,0,0,1,11.8-1.47,38.42,38.42,0,0,1,11.62,1.53A18.65,18.65,0,0,1,390,32.67a16.81,16.81,0,0,1,4.19,7.19,33.62,33.62,0,0,1,1.3,9.74V86.3Zm-1.06-28.44a8.4,8.4,0,0,1-3.42,1.89,63.82,63.82,0,0,1-6.49,1.53q-6.61,1.3-9.09,3.3a7,7,0,0,0-2.48,5.79q0,6.48,7.44,6.49a14.75,14.75,0,0,0,5.48-1,13.35,13.35,0,0,0,7.32-6.72,11,11,0,0,0,1.12-4.9Z"/></g><path id="Contours" class="cls-3" d="M90.72,7V35.79a11.78,11.78,0,0,1,2.53-3.6,16.28,16.28,0,0,1,4-2.89,23.78,23.78,0,0,1,5-1.89,22.47,22.47,0,0,1,5.67-.7q9,0,14.57,4.89T128,45.23v6.33h4.94a33.89,33.89,0,0,1,1.64-7.51,26.36,26.36,0,0,1,5.49-9.32,23.73,23.73,0,0,1,8.79-6,32.23,32.23,0,0,1,11.92-2.06q13.46,0,20.35,8.61,4.81,6,6.27,16.24H192a33.65,33.65,0,0,1,1.67-6.8,26.9,26.9,0,0,1,6-9.68,26.62,26.62,0,0,1,9.38-6.19,33.54,33.54,0,0,1,12.45-2.18,32.76,32.76,0,0,1,12.27,2.18,26,26,0,0,1,15.16,15.75,33.82,33.82,0,0,1,1.68,6.92H256V28.24h14.39v8.5q3-5.79,7.08-7.91a21.43,21.43,0,0,1,9.92-2.12,26,26,0,0,1,5.25.47,12.6,12.6,0,0,1,4.13,1.59,17.06,17.06,0,0,1,3.48,2.89,33.45,33.45,0,0,1,3.3,4.25,15.53,15.53,0,0,1,6.26-7,19,19,0,0,1,9.44-2.18,21.31,21.31,0,0,1,8,1.47,18.14,18.14,0,0,1,6.25,4.13,19.63,19.63,0,0,1,5.55,13.75v5.5h28l2.86-.43c3.85-.55,6.45-1.27,7.79-2.18a5,5,0,0,0,2-4.43,4.92,4.92,0,0,0-2.65-4.42A13.84,13.84,0,0,0,370,38.51c-3.54,0-6.08.78-7.61,2.36a11,11,0,0,0-2.89,6.25H345.19a26.52,26.52,0,0,1,1.47-8.26A15.93,15.93,0,0,1,351,32.37a20.51,20.51,0,0,1,7.85-4.19,41,41,0,0,1,11.8-1.47,38.42,38.42,0,0,1,11.62,1.53A18.65,18.65,0,0,1,390,32.67a16.81,16.81,0,0,1,4.19,7.19,33.62,33.62,0,0,1,1.3,9.74v2h41.06v71.1H39.9V86.3H31.08V21.63H7.48V8H71.2V21.63H47.49V51.56H75.38V7H90.72m0,44.56h21.79V50.31q0-6.62-2.31-9t-7.61-2.42a10.92,10.92,0,0,0-8.85,4.19,13.49,13.49,0,0,0-2.3,4.48,18.55,18.55,0,0,0-.72,4m57.75,0h23.71A15.92,15.92,0,0,0,171.1,46a11.74,11.74,0,0,0-2.65-4,10.53,10.53,0,0,0-3.78-2.36,12.76,12.76,0,0,0-4.36-.77,10.9,10.9,0,0,0-8,3.36q-3.34,3.36-3.83,9.34m156.72,0h18.88v-.43a14,14,0,0,0-2.47-8.61A7.88,7.88,0,0,0,315,39.21a8.55,8.55,0,0,0-7,3.54,13.87,13.87,0,0,0-2.78,8.81m-33.86,0h18.52v-.19a28.52,28.52,0,0,0-.47-5.78,7.75,7.75,0,0,0-1.59-3.54,6,6,0,0,0-2.89-1.83,14.72,14.72,0,0,0-4.25-.53q-9.33,0-9.32,11.32v.55m-63.46,0h27.17Q233,39.69,221.5,39.69T207.91,51.56M90.72,0H75.38a6.93,6.93,0,0,0-3.56,1c-.21,0-.41,0-.62,0H7.48a7,7,0,0,0-7,7V21.63a7,7,0,0,0,7,7h16.6V86.3a7,7,0,0,0,7,7H32.9v29.36a7,7,0,0,0,7,7H436.52a7,7,0,0,0,7-7V51.56a7,7,0,0,0-7-7H402.19a36.41,36.41,0,0,0-1.33-6.71,23.76,23.76,0,0,0-5.94-10.13,25.65,25.65,0,0,0-10.48-6.14,45.47,45.47,0,0,0-13.76-1.87,47.19,47.19,0,0,0-13.84,1.78,27.51,27.51,0,0,0-10.5,5.68,23.08,23.08,0,0,0-4.14,4.93,26.23,26.23,0,0,0-3.64-4.68,25,25,0,0,0-8.64-5.73,28.28,28.28,0,0,0-10.64-2,26,26,0,0,0-12.87,3.07,20.13,20.13,0,0,0-3.08,2.13,21.69,21.69,0,0,0-2.87-2.1,19.84,19.84,0,0,0-6.38-2.49,33.41,33.41,0,0,0-6.66-.61,28.55,28.55,0,0,0-13,2.81,6.94,6.94,0,0,0-4-1.28H256a7,7,0,0,0-7,7v3c-.32-.36-.64-.71-1-1.05a33.54,33.54,0,0,0-11.68-7.75,39.66,39.66,0,0,0-14.88-2.69,40.73,40.73,0,0,0-15,2.67,33.67,33.67,0,0,0-11.81,7.83,32.66,32.66,0,0,0-4.63,6,32.28,32.28,0,0,0-3.42-5.32c-6-7.45-14.67-11.23-25.82-11.23a39.11,39.11,0,0,0-14.5,2.56A30.69,30.69,0,0,0,134.93,30a32.25,32.25,0,0,0-2.6,3.21A22.53,22.53,0,0,0,127,26.33c-5-4.4-11.49-6.62-19.18-6.62a29.37,29.37,0,0,0-7.43.93c-.92.24-1.82.51-2.68.82V7a7,7,0,0,0-7-7ZM54.49,28.63H68.38V44.56H54.49V28.63Z"/></g></svg>